<svg width="38" height="42" viewBox="0 0 38 42" fill="none" xmlns="http://www.w3.org/2000/svg">
<path d="M33.3333 0H6.25C3.7375 0 0 1.66458 0 6.25V35.4167C0 40.0021 3.7375 41.6667 6.25 41.6667H37.5V37.5H6.275C5.3125 37.475 4.16667 37.0958 4.16667 35.4167C4.16667 35.2063 4.18542 35.0188 4.21667 34.8479C4.45 33.6479 5.43333 33.3542 6.275 33.3333H37.5V4.16667C37.5 3.0616 37.061 2.00179 36.2796 1.22039C35.4982 0.438987 34.4384 0 33.3333 0ZM33.3333 18.75L29.1667 16.6667L25 18.75V4.16667H33.3333V18.75Z" fill="#B0DB9C"/>
</svg>
