<svg width="24" height="24" viewBox="0 0 24 24" fill="none" xmlns="http://www.w3.org/2000/svg">
<path d="M10.9805 0.905639C11.4821 1.29621 11.4821 1.29621 12.0716 1.45789C12.1852 1.42437 12.2736 1.37971 12.375 1.31873C12.4124 1.29836 12.4498 1.278 12.4884 1.25702C12.6882 1.14329 12.8764 1.01569 13.0635 0.882202C13.8148 0.351134 14.6015 -0.115272 15.5567 0.026184C16.1658 0.167215 16.5925 0.59158 16.9181 1.10724C17.0801 1.382 17.1903 1.67032 17.2998 1.96912C17.5472 2.70224 17.5472 2.70224 17.9063 3.38123C18.2846 3.53565 18.7199 3.52507 19.123 3.53545C20.0024 3.55902 20.9474 3.61505 21.6094 4.27185C22.0618 4.83135 22.1464 5.44585 22.0782 6.14685C21.9979 6.61603 21.866 7.07559 21.7365 7.53314C21.5846 8.00644 21.5846 8.00644 21.6094 8.4906C21.8024 8.78119 22.1254 8.97701 22.4024 9.18054C23.0453 9.65639 23.8648 10.2695 24 11.1156C24.0629 11.7494 23.9902 12.292 23.5928 12.8119C23.5266 12.8881 23.4592 12.9633 23.3907 13.0375C23.3575 13.0743 23.3244 13.1112 23.2903 13.1492C23.0239 13.431 22.7287 13.66 22.4191 13.8921C21.9447 14.2392 21.9447 14.2392 21.5625 14.6781C21.5717 14.7978 21.5867 14.9066 21.6094 15.0238C21.619 15.0757 21.619 15.0757 21.6287 15.1286C21.6935 15.4608 21.7853 15.7847 21.8832 16.1085C22.0101 16.5301 22.096 16.9316 22.0928 17.3734C22.0925 17.4123 22.0923 17.4511 22.092 17.4911C22.0816 18.0146 21.9247 18.4536 21.5728 18.8503C20.9561 19.4342 20.0883 19.5038 19.2832 19.5267C18.5547 19.5006 18.5547 19.5006 17.9061 19.7283C17.6272 20.0445 17.5117 20.5186 17.3701 20.9095C17.0698 21.7212 16.7353 22.5323 15.9053 22.9222C15.3942 23.1456 14.8636 23.111 14.3438 22.9281C13.902 22.7473 13.508 22.5043 13.1196 22.2292C12.5766 21.8146 12.5766 21.8146 11.9532 21.6156C11.8262 21.6639 11.7149 21.7137 11.5957 21.7767C11.5624 21.7939 11.5292 21.811 11.4949 21.8286C11.252 21.9568 11.0327 22.1048 10.8142 22.2713C10.1494 22.7661 9.42097 23.1375 8.57815 23.0687C8.01732 22.97 7.56647 22.6502 7.22555 22.2052C6.93028 21.7691 6.76218 21.2821 6.58102 20.7907C6.38204 20.2205 6.38204 20.2205 6.09378 19.6937C5.72244 19.5452 5.30639 19.5492 4.9114 19.5395C4.02095 19.5168 3.06223 19.4694 2.39065 18.8031C1.93829 18.2436 1.85362 17.6291 1.9219 16.9281C2.0022 16.4589 2.13403 15.9994 2.26358 15.5418C2.4155 15.0685 2.4155 15.0685 2.39065 14.5843C2.19766 14.2938 1.87469 14.0979 1.59762 13.8944C0.955678 13.4193 0.133616 12.805 2.87816e-05 11.9593C-0.060708 11.2796 0.0287086 10.7635 0.454497 10.2129C0.792007 9.81131 1.16539 9.49322 1.58334 9.1805C2.05656 8.83463 2.05656 8.83463 2.43753 8.39685C2.42839 8.27718 2.41339 8.16836 2.39065 8.05115C2.38428 8.01655 2.37791 7.98195 2.37135 7.94631C2.30652 7.61412 2.21471 7.29024 2.11682 6.96645C1.98996 6.5448 1.90407 6.14332 1.90726 5.70154C1.90765 5.64326 1.90765 5.64326 1.90806 5.58381C1.91845 5.06031 2.07531 4.62134 2.42727 4.22461C3.03645 3.64789 3.89405 3.572 4.69046 3.54822C5.20119 3.52975 5.20119 3.52975 5.70999 3.48376C5.7625 3.47766 5.81501 3.47156 5.86911 3.46527C6.06142 3.41067 6.15332 3.30182 6.2498 3.12917C6.38809 2.81172 6.512 2.49093 6.62991 2.16541C6.91808 1.38672 7.24116 0.59133 8.01565 0.179077C9.08212 -0.302486 10.1218 0.271314 10.9805 0.905639ZM14.6979 8.67769C14.6553 8.72023 14.6128 8.76278 14.5689 8.80662C14.453 8.9225 14.3376 9.03895 14.2223 9.15552C14.1015 9.27754 13.9801 9.39902 13.8588 9.52056C13.6295 9.75044 13.4007 9.98079 13.1721 10.2113C12.9116 10.4739 12.6506 10.7359 12.3895 10.9979C11.8528 11.5366 11.3168 12.0759 10.7813 12.6156C10.6073 12.4687 10.435 12.3227 10.2763 12.1591C10.2458 12.1278 10.2153 12.0965 10.1838 12.0643C10.152 12.0315 10.1201 11.9987 10.0873 11.9648C10.0177 11.894 9.94805 11.8231 9.87839 11.7523C9.77001 11.6419 9.66182 11.5313 9.55413 11.4202C9.4492 11.3121 9.34352 11.2049 9.2377 11.0977C9.20605 11.0646 9.17439 11.0316 9.14178 10.9976C8.87879 10.7332 8.60312 10.5552 8.22366 10.5297C7.91583 10.5463 7.6887 10.6736 7.48245 10.8988C7.31009 11.1194 7.23778 11.34 7.24901 11.6233C7.33119 12.1253 7.74434 12.4701 8.0889 12.8088C8.1469 12.8666 8.20485 12.9244 8.26277 12.9823C8.38361 13.1029 8.50482 13.223 8.62636 13.3429C8.78186 13.4963 8.93663 13.6503 9.09115 13.8047C9.21055 13.9239 9.3302 14.0428 9.44994 14.1617C9.5071 14.2184 9.56421 14.2752 9.62127 14.332C9.701 14.4114 9.78104 14.4903 9.86117 14.5692C9.89618 14.6042 9.89618 14.6042 9.93189 14.6398C10.1795 14.8822 10.4006 15.0091 10.7461 15.0209C10.7792 15.0226 10.8123 15.0244 10.8465 15.0262C11.2855 14.9545 11.568 14.6213 11.8661 14.3207C11.9176 14.2695 11.9691 14.2182 12.0207 14.1671C12.16 14.0286 12.2987 13.8896 12.4373 13.7504C12.5827 13.6045 12.7286 13.4591 12.8744 13.3136C13.1191 13.0692 13.3633 12.8245 13.6074 12.5796C13.8892 12.2967 14.1717 12.0145 14.4546 11.7327C14.6979 11.4903 14.9408 11.2475 15.1834 11.0044C15.3281 10.8594 15.4729 10.7145 15.6181 10.57C15.7545 10.4341 15.8905 10.2977 16.0261 10.161C16.0759 10.111 16.1258 10.0612 16.1758 10.0115C16.5653 9.63033 16.5653 9.63033 16.7547 9.12945C16.7553 8.82253 16.6831 8.58624 16.468 8.36114C16.2528 8.17003 16.0797 8.05535 15.7852 8.05115C15.7434 8.04982 15.7016 8.04849 15.6585 8.04712C15.2407 8.11032 14.9815 8.38926 14.6979 8.67769Z" fill="#5E936C"/>
</svg>
