<svg width="96" height="96" viewBox="0 0 96 96" fill="none" xmlns="http://www.w3.org/2000/svg">
<rect width="96" height="96" rx="48" fill="#CAE8BD"/>
<circle cx="47.9999" cy="47.9999" r="26.1628" fill="white"/>
<path d="M48 13.4651C41.1696 13.4651 34.4927 15.4905 28.8134 19.2853C23.1342 23.08 18.7078 28.4736 16.0939 34.784C13.4801 41.0945 12.7961 48.0383 14.1287 54.7374C15.4612 61.4365 18.7503 67.59 23.5801 72.4198C28.4099 77.2496 34.5635 80.5387 41.2626 81.8713C47.9617 83.2038 54.9055 82.5199 61.2159 79.906C67.5263 77.2922 72.92 72.8658 76.7147 67.1865C80.5094 61.5073 82.5349 54.8303 82.5349 48C82.5349 38.8408 78.8964 30.0567 72.4198 23.5801C65.9433 17.1036 57.1592 13.4651 48 13.4651ZM65.9173 40.801L43.9406 62.7778C43.3518 63.3663 42.5534 63.697 41.7209 63.697C40.8884 63.697 40.09 63.3663 39.5013 62.7778L30.0827 53.3592C29.5108 52.767 29.1943 51.974 29.2015 51.1508C29.2086 50.3276 29.5388 49.5402 30.1209 48.9581C30.703 48.376 31.4904 48.0458 32.3136 48.0387C33.1368 48.0315 33.9298 48.348 34.522 48.9199L41.7209 56.1188L61.478 36.3617C62.0701 35.7898 62.8632 35.4734 63.6864 35.4805C64.5095 35.4877 65.297 35.8179 65.8791 36.4C66.4612 36.9821 66.7914 37.7695 66.7985 38.5927C66.8057 39.4158 66.4892 40.2089 65.9173 40.801Z" fill="#5E936C"/>
</svg>
