<svg width="14" height="12" viewBox="0 0 14 12" fill="none" xmlns="http://www.w3.org/2000/svg">
<path d="M11.2802 8.65281L9.29405 6.66667C9.39669 6.50244 9.47624 6.30998 9.5327 6.0893C9.58915 5.86862 9.61738 5.64537 9.61738 5.41955C9.61738 4.69079 9.36334 4.07236 8.85525 3.56428C8.34717 3.0562 7.72875 2.80216 6.99998 2.80216C6.77416 2.80216 6.55348 2.82782 6.33793 2.87914C6.12238 2.93046 5.92736 3.01257 5.75287 3.12548L4.05926 1.41647C4.41851 1.25225 4.87783 1.10855 5.43724 0.985373C5.99664 0.862202 6.54322 0.800616 7.07696 0.800616C8.46264 0.800616 9.74055 1.1804 10.9107 1.93995C12.0808 2.69951 12.9738 3.72081 13.5897 5.00385C13.6205 5.05517 13.641 5.11676 13.6512 5.18861C13.6615 5.26046 13.6666 5.33744 13.6666 5.41955C13.6666 5.50167 13.6615 5.58122 13.6512 5.6582C13.641 5.73518 13.6205 5.79933 13.5897 5.85065C13.3228 6.41519 12.9943 6.93354 12.6043 7.4057C12.2142 7.87785 11.7729 8.29356 11.2802 8.65281ZM11.8345 11.7937L9.58658 9.59199C9.22733 9.73569 8.82189 9.84604 8.37026 9.92302C7.91863 10 7.46187 10.0385 6.99998 10.0385C5.58351 10.0385 4.28507 9.65871 3.10468 8.89915C1.92428 8.1396 1.02615 7.1183 0.410295 5.83526C0.379502 5.77367 0.358974 5.70952 0.348709 5.6428C0.338445 5.57608 0.333313 5.50167 0.333313 5.41955C0.333313 5.33744 0.341011 5.25789 0.356408 5.18091C0.371804 5.10393 0.389767 5.03977 0.410295 4.98845C0.625846 4.52656 0.900416 4.0775 1.23401 3.64126C1.5676 3.20503 1.96021 2.79189 2.41183 2.40185L0.795207 0.785219C0.702828 0.692841 0.656639 0.585065 0.656639 0.461894C0.656639 0.338722 0.702828 0.230947 0.795207 0.138568C0.887585 0.0461894 0.997927 0 1.12623 0C1.25453 0 1.36488 0.0461894 1.45725 0.138568L12.4811 11.1624C12.5632 11.2445 12.6043 11.3446 12.6043 11.4627C12.6043 11.5807 12.5632 11.6859 12.4811 11.7783C12.399 11.8809 12.2938 11.9323 12.1655 11.9323C12.0372 11.9323 11.9268 11.8861 11.8345 11.7937ZM6.99998 8.03695C7.14368 8.03695 7.29764 8.02412 7.46187 7.99846C7.6261 7.9728 7.76467 7.93431 7.87758 7.88299L4.53655 4.54196C4.48522 4.66513 4.44673 4.8037 4.42107 4.95766C4.39541 5.11162 4.38258 5.26559 4.38258 5.41955C4.38258 6.15858 4.63919 6.77957 5.1524 7.28253C5.66562 7.78548 6.28148 8.03695 6.99998 8.03695ZM8.61661 5.98922L6.43031 3.80293C7.0667 3.56685 7.65689 3.69002 8.2009 4.17244C8.74491 4.65486 8.88348 5.26046 8.61661 5.98922Z" fill="#5E936C"/>
</svg>
