<svg width="20" height="20" viewBox="0 0 20 20" fill="none" xmlns="http://www.w3.org/2000/svg">
<path d="M4.49998 15.25L3.33331 8.33333L7.49998 10L9.99998 5L12.5 10L16.6666 8.33333L15.5 15.25C15.3333 16.0833 14.6666 16.6667 13.8333 16.6667H6.08331C5.33331 16.6667 4.58331 16.0833 4.49998 15.25Z" fill="#5E936C"/>
<path d="M9.99998 6.66659C10.9205 6.66659 11.6666 5.92039 11.6666 4.99992C11.6666 4.07944 10.9205 3.33325 9.99998 3.33325C9.07951 3.33325 8.33331 4.07944 8.33331 4.99992C8.33331 5.92039 9.07951 6.66659 9.99998 6.66659Z" fill="#5E936C"/>
<path d="M16.6667 10.0001C17.5871 10.0001 18.3333 9.25389 18.3333 8.33341C18.3333 7.41294 17.5871 6.66675 16.6667 6.66675C15.7462 6.66675 15 7.41294 15 8.33341C15 9.25389 15.7462 10.0001 16.6667 10.0001Z" fill="#5E936C"/>
<path d="M3.33335 10.0001C4.25383 10.0001 5.00002 9.25389 5.00002 8.33341C5.00002 7.41294 4.25383 6.66675 3.33335 6.66675C2.41288 6.66675 1.66669 7.41294 1.66669 8.33341C1.66669 9.25389 2.41288 10.0001 3.33335 10.0001Z" fill="#5E936C"/>
</svg>
