<svg width="28" height="28" viewBox="0 0 28 28" fill="none" xmlns="http://www.w3.org/2000/svg">
<g clip-path="url(#clip0_317_509)">
<path d="M12.7018 15.2486C12.8045 15.2484 12.9072 15.2483 13.0099 15.2481C13.2246 15.2477 13.4393 15.2476 13.654 15.2477C13.927 15.2477 14.1999 15.2469 14.4729 15.246C14.6849 15.2454 14.8969 15.2453 15.109 15.2453C15.2095 15.2452 15.31 15.245 15.4105 15.2446C16.1944 15.2415 16.9567 15.2744 17.7119 15.5073C17.7577 15.5214 17.8035 15.5354 17.8507 15.5499C19.2898 16.0149 20.529 17.0688 21.2431 18.3993C21.6673 19.2299 21.9329 20.121 21.9427 21.0579C21.9432 21.0988 21.9436 21.1397 21.9441 21.1818C21.9448 21.2678 21.9454 21.3538 21.9458 21.4398C21.9465 21.527 21.9476 21.6143 21.9492 21.7015C21.9672 22.6776 21.9672 22.6776 21.6135 23.0794C21.5825 23.1038 21.5515 23.1282 21.5195 23.1533C21.4885 23.1785 21.4575 23.2038 21.4255 23.2298C21.236 23.3603 21.0933 23.4199 20.8616 23.4205C20.8119 23.4208 20.7622 23.4212 20.711 23.4216C20.6566 23.4215 20.6022 23.4214 20.5462 23.4212C20.4593 23.4217 20.4593 23.4217 20.3706 23.4221C20.1758 23.4229 19.981 23.423 19.7862 23.423C19.6468 23.4234 19.5074 23.4239 19.368 23.4244C18.9888 23.4256 18.6096 23.4261 18.2304 23.4263C17.9936 23.4265 17.7568 23.4269 17.5199 23.4273C16.8641 23.4283 16.2082 23.4292 15.5524 23.4294C15.4894 23.4294 15.4894 23.4294 15.4252 23.4294C15.3401 23.4294 15.2551 23.4295 15.17 23.4295C15.1066 23.4295 15.1066 23.4295 15.042 23.4295C14.9997 23.4295 14.9574 23.4295 14.9139 23.4295C14.2288 23.4297 13.5438 23.4312 12.8587 23.4333C12.1552 23.4353 11.4517 23.4364 10.7482 23.4364C10.3533 23.4364 9.95836 23.4369 9.56344 23.4385C9.19196 23.44 8.82049 23.44 8.449 23.4392C8.31267 23.4391 8.17634 23.4394 8.04001 23.4403C7.85383 23.4414 7.66773 23.4408 7.48156 23.4399C7.42766 23.4406 7.37376 23.4413 7.31822 23.442C6.92114 23.4372 6.65592 23.3295 6.36979 23.052C6.10963 22.7589 6.05633 22.5092 6.05194 22.1243C6.05148 22.0851 6.05102 22.046 6.05055 22.0056C6.04949 21.8789 6.04949 21.7522 6.0498 21.6255C6.04982 21.5608 6.04982 21.5608 6.04983 21.4948C6.05457 19.7337 6.62859 18.206 7.86474 16.9394C9.19508 15.6264 10.8979 15.2493 12.7018 15.2486Z" fill="currentColor"/>
<path d="M16.8752 5.52228C17.9088 6.38284 18.5081 7.46344 18.6485 8.8046C18.7403 9.97724 18.4076 11.157 17.6532 12.0668C17.532 12.2037 17.4075 12.3365 17.2813 12.4687C17.2517 12.5023 17.2222 12.5359 17.1918 12.5706C16.4485 13.3849 15.2884 13.7713 14.2151 13.8337C12.8227 13.8475 11.6412 13.3685 10.6423 12.3956C9.75981 11.4649 9.37453 10.3044 9.38345 9.04073C9.41126 8.01696 9.75587 7.00477 10.4453 6.23428C10.4777 6.19424 10.51 6.1542 10.5434 6.11295C12.1083 4.22856 14.9779 4.10969 16.8752 5.52228Z" fill="currentColor"/>
<path d="M23.9531 9.02332C23.9867 9.04785 24.0203 9.07238 24.0548 9.09766C24.7934 9.6736 25.1796 10.5801 25.3203 11.4843C25.4284 12.5132 25.1298 13.4839 24.5034 14.3007C24.4311 14.3842 24.3571 14.4663 24.2813 14.5468C24.2456 14.5847 24.2099 14.6226 24.1732 14.6617C23.4906 15.3238 22.563 15.6559 21.6221 15.6644C20.5494 15.645 19.6462 15.2391 18.8738 14.5036C18.5664 14.1804 18.361 13.7906 18.1563 13.3983C18.116 13.3302 18.116 13.3302 18.0749 13.2607C18.0096 13.1288 17.9803 13.0533 17.9922 12.9061C18.0924 12.7459 18.2102 12.6152 18.3376 12.4757C18.98 11.7577 19.4227 10.6018 19.413 9.64219C19.4111 8.93886 19.4111 8.93886 19.563 8.72916C19.7114 8.63427 19.8472 8.58321 20.0156 8.53113C20.0875 8.50572 20.1594 8.48015 20.2312 8.45444C21.5308 8.00876 22.8556 8.17136 23.9531 9.02332Z" fill="currentColor"/>
<path d="M8.20314 8.6407C8.2908 8.6776 8.2908 8.6776 8.38023 8.71525C8.62543 8.94936 8.59649 9.23057 8.61671 9.55671C8.72327 10.775 9.12255 11.9664 10.0078 12.8516C9.95874 13.6439 9.3441 14.3185 8.78932 14.8249C8.02884 15.4572 7.05275 15.7245 6.07617 15.6529C5.11325 15.5509 4.33381 15.1227 3.66407 14.4376C3.63165 14.4069 3.59922 14.3762 3.56581 14.3446C3.36353 14.1375 3.23814 13.8863 3.10695 13.6309C3.08871 13.5957 3.07046 13.5606 3.05167 13.5243C2.80368 13.02 2.70445 12.5229 2.71046 11.963C2.71088 11.9083 2.71129 11.8536 2.71172 11.7972C2.73509 10.738 3.17692 9.84779 3.93773 9.1158C5.13115 8.10687 6.82259 7.92192 8.20314 8.6407Z" fill="currentColor"/>
<path d="M21.2188 16.8985C21.5708 16.8943 21.9228 16.8915 22.2748 16.8895C22.3943 16.8887 22.5137 16.8876 22.6331 16.8862C24.2294 16.8675 25.5022 17.2362 26.6875 18.3512C27.6171 19.3071 28.032 20.5103 28.0244 21.8301C28.0239 21.9549 28.0255 22.0796 28.0272 22.2044C28.0273 22.2848 28.0273 22.3653 28.0271 22.4457C28.0272 22.5173 28.0273 22.589 28.0274 22.6628C27.9862 22.9586 27.8672 23.1161 27.6404 23.3049C27.3998 23.4352 27.2228 23.4358 26.954 23.4312C26.8803 23.4312 26.8803 23.4312 26.8052 23.4313C26.6436 23.4311 26.4821 23.4294 26.3205 23.4277C26.2082 23.4273 26.0958 23.427 25.9835 23.4268C25.6884 23.4259 25.3934 23.4238 25.0983 23.4214C24.797 23.4191 24.4956 23.4181 24.1943 23.417C23.6035 23.4147 23.0127 23.411 22.4219 23.4064C22.441 23.3628 22.4601 23.3192 22.4798 23.2743C22.5047 23.2164 22.5295 23.1584 22.5552 23.0987C22.5923 23.0131 22.5923 23.0131 22.6302 22.9257C23.073 21.7322 22.7451 20.0353 22.3125 18.8673C22.289 18.8035 22.2654 18.7397 22.2411 18.674C21.9847 18.0315 21.601 17.4714 21.2188 16.8985Z" fill="currentColor"/>
<path d="M4.83195 16.8877C4.91625 16.888 4.91625 16.888 5.00225 16.8882C5.17941 16.8888 5.35655 16.8902 5.5337 16.8916C5.65479 16.8921 5.77588 16.8926 5.89697 16.8931C6.19174 16.8943 6.4865 16.8961 6.78126 16.8984C6.42717 17.4571 6.42717 17.4571 6.28074 17.6758C5.4913 18.8798 5.24051 20.2421 5.23976 21.6596C5.23909 21.7261 5.23842 21.7925 5.23773 21.861C5.23695 22.3403 5.27435 22.7366 5.47299 23.1745C5.49268 23.2181 5.51237 23.2617 5.53266 23.3066C5.54767 23.3395 5.56267 23.3724 5.57813 23.4062C4.92781 23.4113 4.27749 23.4152 3.62715 23.4176C3.32517 23.4187 3.0232 23.4203 2.72122 23.4227C2.42975 23.4251 2.13829 23.4264 1.84681 23.427C1.73565 23.4274 1.62449 23.4282 1.51334 23.4294C1.35754 23.4309 1.2018 23.4312 1.04599 23.4311C1.00012 23.4319 0.954256 23.4326 0.907 23.4334C0.614921 23.4314 0.450765 23.3807 0.21876 23.1875C0.0121753 22.9419 -0.0279325 22.7692 -0.0290431 22.4513C-0.0292524 22.4126 -0.0294617 22.3739 -0.0296773 22.334C-0.0298256 22.2521 -0.0294259 22.1702 -0.0285091 22.0883C-0.0273549 21.966 -0.0284902 21.844 -0.0298976 21.7218C-0.032464 20.3772 0.479908 19.2234 1.42188 18.2656C1.46341 18.2234 1.50493 18.1812 1.54771 18.1376C2.42901 17.2938 3.62386 16.8749 4.83195 16.8877Z" fill="currentColor"/>
</g>
<defs>
<clipPath id="clip0_317_509">
<rect width="28" height="28" fill="white"/>
</clipPath>
</defs>
</svg>
