<svg width="180" height="47" viewBox="0 0 180 47" fill="none" xmlns="http://www.w3.org/2000/svg">
<path d="M12.5834 30.0214C10.7097 29.3826 9.00639 28.7332 7.47338 28.0732C5.94038 27.4132 4.6203 26.6147 3.51313 25.6779C2.40597 24.741 1.54365 23.6232 0.926193 22.3244C0.308735 21.0257 0 19.4394 0 17.5657C0 13.9462 1.39461 11.0505 4.18382 8.87872C6.97302 6.70697 10.8801 5.62109 15.9049 5.62109C17.736 5.62109 19.4393 5.74884 21.0149 6.00435C22.5905 6.25985 23.9425 6.65374 25.071 7.18604C26.1994 7.71833 27.083 8.39966 27.7218 9.23004C28.3605 10.0604 28.6799 11.0292 28.6799 12.1364C28.6799 13.2435 28.4244 14.191 27.9134 14.9788C27.4024 15.7666 26.785 16.4373 26.061 16.9909C25.1242 16.3947 23.868 15.8731 22.2924 15.4259C20.7168 14.9788 18.9922 14.7553 17.1185 14.7553C15.2023 14.7553 13.797 15.0214 12.9028 15.5537C12.0085 16.086 11.5614 16.7567 11.5614 17.5658C11.5614 18.2045 11.8382 18.7261 12.3918 19.1307C12.9454 19.5352 13.7757 19.9078 14.8829 20.2485L18.2683 21.3344C22.2711 22.6119 25.3478 24.2407 27.4982 26.2208C29.6487 28.2009 30.7239 30.8944 30.7239 34.301C30.7239 37.9206 29.2974 40.8482 26.4443 43.0838C23.5912 45.3195 19.3967 46.4373 13.8609 46.4373C11.9021 46.4373 10.0816 46.2776 8.39957 45.9582C6.71753 45.6389 5.24841 45.1704 3.99219 44.553C2.73598 43.9355 1.75656 43.169 1.05394 42.2535C0.351315 41.3379 0 40.284 0 39.0917C0 37.8567 0.361965 36.8028 1.08588 35.9298C1.80979 35.0569 2.59759 34.3862 3.44926 33.9178C4.64159 34.8546 6.10007 35.6637 7.8247 36.345C9.54933 37.0264 11.4336 37.367 13.4776 37.367C15.5642 37.367 17.0334 37.0477 17.885 36.4089C18.7367 35.7701 19.1625 35.0249 19.1625 34.1733C19.1625 33.3216 18.8219 32.6722 18.1405 32.2251C17.4592 31.778 16.5011 31.3415 15.2661 30.9156L12.5834 30.0214Z" fill="#5E936C"/>
<path d="M46.8204 34.748C46.8204 35.8552 47.1718 36.643 47.8744 37.1114C48.577 37.5798 49.5671 37.814 50.8446 37.814C51.4833 37.814 52.1434 37.7608 52.8247 37.6544C53.506 37.5479 54.1022 37.4095 54.6132 37.2392C54.9964 37.7076 55.3265 38.2292 55.6033 38.8041C55.8801 39.379 56.0184 40.071 56.0184 40.88C56.0184 42.4982 55.4116 43.8183 54.198 44.8403C52.9844 45.8623 50.8446 46.3733 47.7786 46.3733C44.0312 46.3733 41.1462 45.5216 39.1235 43.8183C37.1008 42.115 36.0894 39.347 36.0894 35.5145V8.176C36.5579 8.04825 37.2285 7.90986 38.1015 7.76081C38.9744 7.61177 39.9006 7.53723 40.8801 7.53723C42.7537 7.53723 44.2122 7.86725 45.2555 8.5273C46.2988 9.18734 46.8204 10.582 46.8204 12.7111V16.7991H55.1881C55.4436 17.2675 55.6884 17.8531 55.9226 18.5557C56.1568 19.2583 56.2739 20.0355 56.2739 20.8871C56.2739 22.3775 55.9439 23.4528 55.2839 24.1128C54.6238 24.7729 53.7402 25.1029 52.6331 25.1029H46.8204L46.8204 34.748Z" fill="#5E936C"/>
<path d="M61.5117 14.819C61.9375 14.6913 62.6082 14.5635 63.5237 14.4358C64.4393 14.308 65.3868 14.2441 66.3662 14.2441C67.303 14.2441 68.144 14.308 68.8893 14.4358C69.6345 14.5635 70.2626 14.819 70.7736 15.2023C71.2846 15.5855 71.6785 16.1072 71.9553 16.7672C72.232 17.4272 72.3705 18.2896 72.3705 19.3541V33.0873C72.3705 34.8332 72.7963 36.0788 73.648 36.824C74.4996 37.5692 75.7345 37.9418 77.3527 37.9418C78.3321 37.9418 79.1306 37.8566 79.748 37.6863C80.3655 37.516 80.8445 37.3456 81.1852 37.1753V14.819C81.611 14.6913 82.2817 14.5635 83.1973 14.4358C84.1128 14.308 85.0603 14.2441 86.0397 14.2441C86.9766 14.2441 87.8176 14.308 88.5628 14.4358C89.308 14.5635 89.9361 14.819 90.4471 15.2023C90.9581 15.5855 91.352 16.1072 91.6288 16.7672C91.9056 17.4272 92.044 18.2896 92.044 19.3541V38.7722C92.044 40.9013 91.1497 42.4982 89.3612 43.5628C87.8708 44.4996 86.093 45.2129 84.0277 45.7026C81.9624 46.1923 79.7161 46.4372 77.2888 46.4372C74.9893 46.4372 72.8708 46.1817 70.9333 45.6707C68.9957 45.1597 67.3243 44.3719 65.9191 43.3073C64.5138 42.2427 63.4279 40.8694 62.6614 39.1873C61.8949 37.5053 61.5117 35.472 61.5117 33.0873V14.819Z" fill="#5E936C"/>
<path d="M97.3456 29.8935C97.3456 27.083 97.7715 24.6451 98.6231 22.5798C99.4748 20.5145 100.657 18.8005 102.168 17.4379C103.68 16.0752 105.447 15.0639 107.47 14.4038C109.493 13.7438 111.675 13.4138 114.017 13.4138C114.869 13.4138 115.699 13.4883 116.508 13.6373C117.317 13.7864 117.977 13.9673 118.488 14.1802V3.83247C118.914 3.70473 119.595 3.56633 120.532 3.41729C121.469 3.26824 122.427 3.19373 123.407 3.19373C124.344 3.19373 125.185 3.2576 125.93 3.38535C126.675 3.5131 127.303 3.76861 127.814 4.15186C128.325 4.53511 128.708 5.05675 128.964 5.71678C129.219 6.37683 129.347 7.23914 129.347 8.30373V38.5805C129.347 40.5819 128.41 42.1788 126.537 43.3712C125.302 44.1802 123.705 44.8935 121.746 45.511C119.787 46.1284 117.53 46.4372 114.975 46.4372C112.207 46.4372 109.727 46.0539 107.534 45.2874C105.341 44.5209 103.488 43.4137 101.977 41.9659C100.465 40.5181 99.3151 38.7828 98.5273 36.7601C97.7395 34.7374 97.3456 32.4485 97.3456 29.8935ZM115.486 21.9091C113.187 21.9091 111.419 22.5692 110.185 23.8893C108.95 25.2093 108.332 27.2108 108.332 29.8935C108.332 32.5337 108.907 34.5245 110.057 35.8658C111.207 37.2072 112.867 37.8779 115.039 37.8779C115.806 37.8779 116.498 37.7608 117.115 37.5266C117.732 37.2924 118.212 37.0262 118.552 36.7281V22.6756C117.701 22.1646 116.678 21.9091 115.486 21.9091Z" fill="#5E936C"/>
<path d="M147.232 45.3513C146.764 45.4365 146.072 45.5536 145.156 45.7026C144.241 45.8517 143.314 45.9262 142.378 45.9262C141.441 45.9262 140.6 45.8623 139.855 45.7346C139.109 45.6068 138.481 45.3513 137.97 44.9681C137.459 44.5848 137.065 44.0631 136.789 43.4031C136.512 42.7431 136.373 41.8808 136.373 40.8162V14.819C136.842 14.7339 137.534 14.6167 138.449 14.4677C139.365 14.3187 140.291 14.2441 141.228 14.2441C142.165 14.2441 143.006 14.308 143.751 14.4358C144.496 14.5635 145.124 14.819 145.635 15.2023C146.146 15.5855 146.54 16.1072 146.817 16.7672C147.094 17.4272 147.232 18.2896 147.232 19.3541V45.3513ZM135.862 5.74875C135.862 4.13058 136.405 2.76792 137.491 1.66075C138.577 0.553583 140.014 0 141.803 0C143.591 0 145.028 0.553583 146.114 1.66075C147.2 2.76792 147.743 4.13058 147.743 5.74875C147.743 7.36692 147.2 8.72958 146.114 9.83676C145.028 10.9439 143.591 11.4975 141.803 11.4975C140.014 11.4975 138.577 10.9439 137.491 9.83676C136.405 8.72959 135.862 7.36692 135.862 5.74875Z" fill="#5E936C"/>
<path d="M155.216 45.4152C154.535 44.819 153.992 44.1164 153.588 43.3073C153.183 42.4982 152.981 41.5827 152.981 40.5607C152.981 39.709 153.183 38.868 153.588 38.0376C153.992 37.2073 154.493 36.4301 155.089 35.7062L166.075 22.8034H154.322C154.067 22.335 153.822 21.7388 153.588 21.0149C153.353 20.291 153.236 19.5032 153.236 18.6516C153.236 17.1611 153.566 16.0859 154.226 15.4259C154.886 14.7658 155.77 14.4358 156.877 14.4358H176.998C177.679 15.032 178.222 15.7346 178.627 16.5437C179.031 17.3527 179.234 18.2683 179.234 19.2903C179.234 20.142 179.031 20.983 178.627 21.8134C178.222 22.6437 177.722 23.4209 177.126 24.1448L166.395 37.0476H178.914C179.17 37.516 179.414 38.1122 179.649 38.8361C179.883 39.56 180 40.3478 180 41.1994C180 42.6899 179.67 43.7651 179.01 44.4251C178.35 45.0852 177.466 45.4152 176.359 45.4152H155.216Z" fill="#5E936C"/>
</svg>
