<svg width="28" height="28" viewBox="0 0 28 28" fill="none" xmlns="http://www.w3.org/2000/svg">
<path d="M12.702 15.2486C12.8047 15.2484 12.9074 15.2483 13.0101 15.2481C13.2248 15.2477 13.4395 15.2476 13.6542 15.2477C13.9272 15.2477 14.2001 15.2469 14.4731 15.246C14.6851 15.2454 14.8971 15.2453 15.1092 15.2453C15.2097 15.2452 15.3102 15.245 15.4107 15.2446C16.1946 15.2415 16.9568 15.2744 17.7121 15.5073C17.7579 15.5214 17.8037 15.5354 17.8509 15.5499C19.29 16.0149 20.5292 17.0688 21.2433 18.3993C21.6675 19.2299 21.9331 20.121 21.9429 21.0579C21.9433 21.0988 21.9438 21.1397 21.9442 21.1818C21.945 21.2678 21.9456 21.3538 21.946 21.4398C21.9466 21.527 21.9478 21.6143 21.9494 21.7015C21.9674 22.6776 21.9674 22.6776 21.6137 23.0794C21.5827 23.1038 21.5517 23.1282 21.5197 23.1533C21.4887 23.1785 21.4577 23.2038 21.4257 23.2298C21.2362 23.3603 21.0935 23.4199 20.8618 23.4205C20.8121 23.4208 20.7624 23.4212 20.7112 23.4216C20.6568 23.4215 20.6024 23.4214 20.5464 23.4212C20.4595 23.4217 20.4595 23.4217 20.3708 23.4221C20.176 23.4229 19.9812 23.423 19.7864 23.423C19.647 23.4234 19.5076 23.4239 19.3682 23.4244C18.989 23.4256 18.6098 23.4261 18.2306 23.4263C17.9938 23.4265 17.7569 23.4269 17.5201 23.4273C16.8643 23.4283 16.2084 23.4292 15.5526 23.4294C15.4896 23.4294 15.4896 23.4294 15.4254 23.4294C15.3403 23.4294 15.2552 23.4295 15.1702 23.4295C15.1068 23.4295 15.1068 23.4295 15.0422 23.4295C14.9999 23.4295 14.9576 23.4295 14.914 23.4295C14.229 23.4297 13.544 23.4312 12.8589 23.4333C12.1554 23.4353 11.4519 23.4364 10.7484 23.4364C10.3535 23.4364 9.95855 23.4369 9.56363 23.4385C9.19214 23.44 8.82067 23.44 8.44918 23.4392C8.31285 23.4391 8.17652 23.4394 8.04019 23.4403C7.85402 23.4414 7.66792 23.4408 7.48174 23.4399C7.42784 23.4406 7.37394 23.4413 7.31841 23.442C6.92133 23.4372 6.65611 23.3295 6.36998 23.052C6.10981 22.7589 6.05651 22.5092 6.05212 22.1243C6.05166 22.0851 6.05121 22.046 6.05074 22.0056C6.04968 21.8789 6.04967 21.7522 6.04998 21.6255C6.05 21.5608 6.05 21.5608 6.05002 21.4948C6.05475 19.7337 6.62878 18.206 7.86492 16.9394C9.19527 15.6264 10.8981 15.2493 12.702 15.2486Z" fill="currentColor"/>
<path d="M16.8752 5.52228C17.9088 6.38284 18.5081 7.46344 18.6485 8.8046C18.7403 9.97724 18.4076 11.157 17.6532 12.0668C17.532 12.2037 17.4075 12.3365 17.2813 12.4687C17.2517 12.5023 17.2222 12.5359 17.1918 12.5706C16.4485 13.3849 15.2884 13.7713 14.2151 13.8337C12.8227 13.8475 11.6412 13.3685 10.6423 12.3956C9.75981 11.4649 9.37453 10.3044 9.38345 9.04073C9.41126 8.01696 9.75587 7.00477 10.4453 6.23428C10.4777 6.19424 10.51 6.1542 10.5434 6.11295C12.1083 4.22856 14.9779 4.10969 16.8752 5.52228Z" fill="currentColor"/>
</svg>
