<svg width="16" height="10" viewBox="0 0 16 10" fill="none" xmlns="http://www.w3.org/2000/svg">
<path d="M8 0C4.59091 0 1.67955 2.0215 0.5 4.875C1.67955 7.7285 4.59091 9.75 8 9.75C11.4091 9.75 14.3205 7.7285 15.5 4.875C14.3205 2.0215 11.4091 0 8 0ZM8 8.125C6.11818 8.125 4.59091 6.669 4.59091 4.875C4.59091 3.081 6.11818 1.625 8 1.625C9.88182 1.625 11.4091 3.081 11.4091 4.875C11.4091 6.669 9.88182 8.125 8 8.125ZM8 2.925C6.86818 2.925 5.95455 3.796 5.95455 4.875C5.95455 5.954 6.86818 6.825 8 6.825C9.13182 6.825 10.0455 5.954 10.0455 4.875C10.0455 3.796 9.13182 2.925 8 2.925Z" fill="#B0DB9C"/>
</svg>
