<svg width="20" height="20" viewBox="0 0 20 20" fill="none" xmlns="http://www.w3.org/2000/svg">
<g clip-path="url(#clip0_85_866)">
<path opacity="0.85098" d="M16.582 0L16.6797 0.0195312L16.582 0.0390625V0Z" fill="currentColor" stroke="currentColor" stroke-width="0.0390625"/>
<path opacity="0.85098" d="M16.1914 0.0390625L16.2891 0.0585938L16.1914 0.078125V0.0390625Z" fill="currentColor" stroke="currentColor" stroke-width="0.0390625"/>
<path opacity="0.85098" d="M16.9336 0.0390625L17.0312 0.0585938L16.9336 0.078125V0.0390625Z" fill="currentColor" stroke="currentColor" stroke-width="0.0390625"/>
<path opacity="0.85098" d="M17.1289 0.078125L17.2266 0.0976562L17.1289 0.117188V0.078125Z" fill="currentColor" stroke="currentColor" stroke-width="0.0390625"/>
<path opacity="0.85098" d="M15.6055 0.234375L15.6641 0.253906L15.5664 0.3125L15.6055 0.234375Z" fill="currentColor" stroke="currentColor" stroke-width="0.0390625"/>
<path opacity="0.85098" d="M17.7539 0.3125L17.793 0.390625" stroke="currentColor" stroke-width="0.0390625"/>
<path opacity="0.85098" d="M15.4102 0.351562L15.3711 0.429688" stroke="currentColor" stroke-width="0.0390625"/>
<path opacity="0.85098" d="M17.8711 0.390625L17.9102 0.46875" stroke="currentColor" stroke-width="0.0390625"/>
<path opacity="0.85098" d="M15.293 0.429688L15.1758 0.585938" stroke="currentColor" stroke-width="0.0390625"/>
<path opacity="0.85098" d="M18.0664 0.546875L19.4727 1.99219" stroke="currentColor" stroke-width="0.0390625"/>
<path opacity="0.85098" d="M19.5508 2.07031L19.5898 2.14844" stroke="currentColor" stroke-width="0.0390625"/>
<path opacity="0.85098" d="M13.6133 2.14844L17.832 6.40625" stroke="currentColor" stroke-width="0.0390625"/>
<path opacity="0.85098" d="M19.6289 2.1875L19.668 2.26562" stroke="currentColor" stroke-width="0.0390625"/>
<path opacity="0.85098" d="M19.9805 3.08594L20 3.30078H19.9609L19.9805 3.08594Z" fill="currentColor" stroke="currentColor" stroke-width="0.0390625"/>
<path opacity="0.85098" d="M12.3633 3.35938L16.6211 7.65625" stroke="currentColor" stroke-width="0.0390625"/>
<path opacity="0.85098" d="M19.9805 3.4375L20 3.65234H19.9609L19.9805 3.4375Z" fill="currentColor" stroke="currentColor" stroke-width="0.0390625"/>
<path opacity="0.85098" d="M19.707 4.45312L19.668 4.53125" stroke="currentColor" stroke-width="0.0390625"/>
<path opacity="0.85098" d="M19.6289 4.57031L19.5898 4.64844" stroke="currentColor" stroke-width="0.0390625"/>
<path opacity="0.85098" d="M19.5508 4.6875L19.4336 4.84375" stroke="currentColor" stroke-width="0.0390625"/>
<path opacity="0.85098" d="M1.30859 14.4141L1.26953 14.4922" stroke="currentColor" stroke-width="0.0390625"/>
<path opacity="0.85098" d="M5.56641 18.6719L5.52734 18.75L5.46875 18.7305L5.56641 18.6719Z" fill="currentColor" stroke="currentColor" stroke-width="0.0390625"/>
<path opacity="0.85098" d="M0.0195312 19.4141L0.0390625 19.5117H0L0.0195312 19.4141Z" fill="currentColor" stroke="currentColor" stroke-width="0.0390625"/>
<path opacity="0.85098" d="M0.0585938 19.7266L0.195312 19.9023L0.0390625 19.7852L0.0585938 19.7266Z" fill="currentColor" stroke="currentColor" stroke-width="0.0390625"/>
<path opacity="0.85098" d="M0.332031 19.9609L0.429688 19.9805L0.332031 20V19.9609Z" fill="currentColor" stroke="currentColor" stroke-width="0.0390625"/>
<path opacity="0.85098" d="M0.488281 19.9609L0.585938 19.9805L0.488281 20V19.9609Z" fill="currentColor" stroke="currentColor" stroke-width="0.0390625"/>
<path d="M16.3086 0.0390625H16.8945L17.2461 0.117188L17.7148 0.3125L17.9492 0.46875L19.5312 2.05078L19.8438 2.59766L19.9609 2.98828L20 3.41797L19.9609 3.45703V3.80859L19.8438 4.19922L19.5703 4.66797L17.8711 6.40625L13.5938 2.12891L15.1367 0.585938C15.4258 0.302083 15.8164 0.119792 16.3086 0.0390625Z" fill="currentColor" stroke="currentColor" stroke-width="0.0390625"/>
<path d="M12.3242 3.39844L16.6016 7.63672L5.60547 18.6719L5.33203 18.7891L0.449219 20C0.277344 19.9766 0.153646 19.9049 0.078125 19.7852L0 19.5508L1.25 14.5117L1.32812 14.3945L12.3242 3.39844Z" fill="currentColor" stroke="currentColor" stroke-width="0.0390625"/>
</g>
<defs>
<clipPath id="clip0_85_866">
<rect width="20" height="20" fill="white"/>
</clipPath>
</defs>
</svg>