<svg width="12" height="12" viewBox="0 0 12 12" fill="none" xmlns="http://www.w3.org/2000/svg">
<g clip-path="url(#clip0_451_564)">
<path d="M6.29256 0.0555093C6.43973 0.14071 6.53311 0.269274 6.58509 0.42995C6.58937 0.498497 6.59121 0.564753 6.59072 0.633262C6.59078 0.663945 6.59078 0.663945 6.59084 0.695248C6.59092 0.763773 6.59066 0.832293 6.59041 0.900818C6.59039 0.949945 6.5904 0.999073 6.59043 1.0482C6.59044 1.18159 6.59017 1.31499 6.58984 1.44838C6.58955 1.58777 6.58952 1.72717 6.58946 1.86657C6.58932 2.13054 6.58894 2.39452 6.58847 2.6585C6.58794 2.95902 6.58768 3.25954 6.58745 3.56006C6.58696 4.17828 6.58614 4.79648 6.58509 5.41469C6.62331 5.41453 6.62331 5.41453 6.66229 5.41437C7.28245 5.41177 7.9026 5.40985 8.52276 5.40863C8.82267 5.40803 9.12257 5.40721 9.42247 5.40587C9.6839 5.4047 9.94533 5.40395 10.2068 5.40368C10.3452 5.40353 10.4835 5.40317 10.6219 5.40232C10.7523 5.40153 10.8826 5.40128 11.013 5.40146C11.0607 5.40143 11.1085 5.4012 11.1562 5.40075C11.6374 5.39644 11.6374 5.39644 11.8039 5.53171C11.9612 5.7003 12.0039 5.85026 11.9998 6.07975C11.9846 6.22645 11.9351 6.33851 11.8287 6.44148C11.6802 6.55851 11.5553 6.5918 11.3665 6.59045C11.3358 6.59051 11.3358 6.59051 11.3045 6.59057C11.236 6.59065 11.1675 6.59039 11.099 6.59013C11.0498 6.59012 11.0007 6.59013 10.9516 6.59016C10.8182 6.59017 10.6848 6.58989 10.5514 6.58957C10.412 6.58927 10.2726 6.58925 10.1332 6.58919C9.86925 6.58905 9.60527 6.58866 9.34129 6.58819C9.04077 6.58767 8.74025 6.58741 8.43972 6.58718C7.82151 6.58669 7.2033 6.58586 6.58509 6.58482C6.5852 6.6103 6.58531 6.63577 6.58542 6.66202C6.58802 7.28217 6.58994 7.90233 6.59116 8.52249C6.59176 8.82239 6.59258 9.12229 6.59392 9.4222C6.59509 9.68363 6.59584 9.94505 6.5961 10.2065C6.59626 10.3449 6.59661 10.4833 6.59747 10.6217C6.59826 10.752 6.59851 10.8824 6.59833 11.0127C6.59836 11.0605 6.59859 11.1082 6.59904 11.156C6.60335 11.6371 6.60335 11.6371 6.46808 11.8036C6.29949 11.9609 6.14953 12.0036 5.92004 11.9995C5.77334 11.9843 5.66128 11.9349 5.55831 11.8285C5.44127 11.6799 5.40799 11.5551 5.40934 11.3663C5.4093 11.3458 5.40926 11.3253 5.40922 11.3043C5.40914 11.2357 5.4094 11.1672 5.40965 11.0987C5.40967 11.0496 5.40966 11.0004 5.40963 10.9513C5.40962 10.8179 5.40989 10.6845 5.41022 10.5511C5.41051 10.4117 5.41054 10.2723 5.4106 10.1329C5.41074 9.86897 5.41113 9.605 5.4116 9.34102C5.41212 9.0405 5.41238 8.73997 5.41261 8.43945C5.4131 7.82124 5.41392 7.20303 5.41497 6.58482C5.38949 6.58493 5.36402 6.58504 5.33777 6.58515C4.71762 6.58775 4.09746 6.58967 3.4773 6.59088C3.1774 6.59149 2.87749 6.59231 2.57759 6.59365C2.31616 6.59482 2.05473 6.59557 1.7933 6.59583C1.65491 6.59598 1.51652 6.59634 1.37812 6.59719C1.24777 6.59799 1.11743 6.59823 0.987077 6.59806C0.939323 6.59809 0.891569 6.59832 0.843817 6.59877C0.362649 6.60308 0.362649 6.60308 0.196198 6.46781C0.0388995 6.29922 -0.00379239 6.14925 0.000292689 5.91977C0.0154908 5.77307 0.0649276 5.66101 0.171332 5.55803C0.319876 5.441 0.444738 5.40771 0.633535 5.40907C0.664218 5.40901 0.664218 5.40901 0.695521 5.40894C0.764046 5.40887 0.832566 5.40912 0.901091 5.40938C0.950218 5.40939 0.999346 5.40939 1.04847 5.40936C1.18187 5.40935 1.31526 5.40962 1.44865 5.40995C1.58805 5.41024 1.72744 5.41027 1.86684 5.41032C2.13082 5.41047 2.39479 5.41085 2.65877 5.41132C2.95929 5.41185 3.25981 5.4121 3.56034 5.41234C4.17855 5.41283 4.79676 5.41365 5.41497 5.41469C5.41481 5.37648 5.41481 5.37648 5.41464 5.3375C5.41204 4.71734 5.41012 4.09719 5.4089 3.47703C5.4083 3.17712 5.40748 2.87722 5.40614 2.57732C5.40497 2.31589 5.40422 2.05446 5.40396 1.79303C5.4038 1.65463 5.40345 1.51624 5.4026 1.37785C5.4018 1.2475 5.40156 1.11716 5.40173 0.986804C5.4017 0.93905 5.40147 0.891296 5.40102 0.843544C5.39671 0.362376 5.39671 0.362376 5.53198 0.195925C5.74288 -0.000848042 6.02053 -0.0670904 6.29256 0.0555093Z" fill="currentColor"/>
</g>
<defs>
<clipPath id="clip0_451_564">
<rect width="12" height="12" fill="white"/>
</clipPath>
</defs>
</svg>
