<svg width="20" height="20" viewBox="0 0 20 20" fill="none" xmlns="http://www.w3.org/2000/svg">
<path d="M10 12.5C11.3807 12.5 12.5 11.3807 12.5 10C12.5 8.61929 11.3807 7.5 10 7.5C8.61929 7.5 7.5 8.61929 7.5 10C7.5 11.3807 8.61929 12.5 10 12.5Z" stroke="#B0DB9C" stroke-width="1.5" stroke-miterlimit="10" stroke-linecap="round" stroke-linejoin="round"/>
<path d="M17.3488 6.47875L16.7238 5.39625C16.3788 4.79813 15.6144 4.59375 15.0163 4.93875L14.6875 5.12875C13.4375 5.85 11.875 4.94812 11.875 3.505V3.125C11.875 2.43438 11.3157 1.875 10.625 1.875H9.37502C8.6844 1.875 8.12502 2.43438 8.12502 3.125V3.505C8.12502 4.94812 6.56252 5.85063 5.31252 5.12875L4.98377 4.93875C4.38565 4.59375 3.62127 4.79813 3.27627 5.39625L2.65127 6.47875C2.30627 7.07688 2.51065 7.84125 3.10877 8.18625L3.43752 8.37625C4.68752 9.09813 4.68752 10.9019 3.43752 11.6237L3.10877 11.8138C2.51065 12.1588 2.30627 12.9231 2.65127 13.5213L3.27627 14.6037C3.62127 15.2019 4.38565 15.4063 4.98377 15.0613L5.31252 14.8713C6.56252 14.1494 8.12502 15.0519 8.12502 16.495V16.875C8.12502 17.5656 8.6844 18.125 9.37502 18.125H10.625C11.3157 18.125 11.875 17.5656 11.875 16.875V16.495C11.875 15.0519 13.4375 14.1494 14.6875 14.8713L15.0163 15.0613C15.6144 15.4063 16.3788 15.2019 16.7238 14.6037L17.3488 13.5213C17.6938 12.9231 17.4894 12.1588 16.8913 11.8138L16.5625 11.6237C15.3125 10.9019 15.3125 9.09813 16.5625 8.37625L16.8913 8.18625C17.4894 7.84125 17.6944 7.07688 17.3488 6.47875Z" stroke="#B0DB9C" stroke-width="1.5" stroke-miterlimit="10" stroke-linecap="round" stroke-linejoin="round"/>
</svg>
